<svg id="visual" viewBox="0 0 900 600" width="900" height="600" xmlns="http://www.w3.org/2000/svg" xmlns:xlink="http://www.w3.org/1999/xlink" version="1.1"><rect x="0" y="0" width="900" height="600" fill="#eee"></rect><defs><linearGradient id="grad1_0" x1="33.3%" y1="100%" x2="100%" y2="0%"><stop offset="20%" stop-color="#6e9b2f" stop-opacity="1"></stop><stop offset="80%" stop-color="#6e9b2f" stop-opacity="1"></stop></linearGradient></defs><defs><linearGradient id="grad1_1" x1="33.3%" y1="100%" x2="100%" y2="0%"><stop offset="20%" stop-color="#6e9b2f" stop-opacity="1"></stop><stop offset="80%" stop-color="#82a74c" stop-opacity="1"></stop></linearGradient></defs><defs><linearGradient id="grad1_2" x1="33.3%" y1="100%" x2="100%" y2="0%"><stop offset="20%" stop-color="#94b267" stop-opacity="1"></stop><stop offset="80%" stop-color="#82a74c" stop-opacity="1"></stop></linearGradient></defs><defs><linearGradient id="grad1_3" x1="33.3%" y1="100%" x2="100%" y2="0%"><stop offset="20%" stop-color="#94b267" stop-opacity="1"></stop><stop offset="80%" stop-color="#a7be81" stop-opacity="1"></stop></linearGradient></defs><defs><linearGradient id="grad1_4" x1="33.3%" y1="100%" x2="100%" y2="0%"><stop offset="20%" stop-color="#b9ca9c" stop-opacity="1"></stop><stop offset="80%" stop-color="#a7be81" stop-opacity="1"></stop></linearGradient></defs><defs><linearGradient id="grad1_5" x1="33.3%" y1="100%" x2="100%" y2="0%"><stop offset="20%" stop-color="#b9ca9c" stop-opacity="1"></stop><stop offset="80%" stop-color="#cbd6b7" stop-opacity="1"></stop></linearGradient></defs><defs><linearGradient id="grad1_6" x1="33.3%" y1="100%" x2="100%" y2="0%"><stop offset="20%" stop-color="#dce2d2" stop-opacity="1"></stop><stop offset="80%" stop-color="#cbd6b7" stop-opacity="1"></stop></linearGradient></defs><defs><linearGradient id="grad1_7" x1="33.3%" y1="100%" x2="100%" y2="0%"><stop offset="20%" stop-color="#dce2d2" stop-opacity="1"></stop><stop offset="80%" stop-color="#eeeeee" stop-opacity="1"></stop></linearGradient></defs><defs><linearGradient id="grad2_0" x1="0%" y1="100%" x2="66.7%" y2="0%"><stop offset="20%" stop-color="#6e9b2f" stop-opacity="1"></stop><stop offset="80%" stop-color="#6e9b2f" stop-opacity="1"></stop></linearGradient></defs><defs><linearGradient id="grad2_1" x1="0%" y1="100%" x2="66.7%" y2="0%"><stop offset="20%" stop-color="#82a74c" stop-opacity="1"></stop><stop offset="80%" stop-color="#6e9b2f" stop-opacity="1"></stop></linearGradient></defs><defs><linearGradient id="grad2_2" x1="0%" y1="100%" x2="66.7%" y2="0%"><stop offset="20%" stop-color="#82a74c" stop-opacity="1"></stop><stop offset="80%" stop-color="#94b267" stop-opacity="1"></stop></linearGradient></defs><defs><linearGradient id="grad2_3" x1="0%" y1="100%" x2="66.7%" y2="0%"><stop offset="20%" stop-color="#a7be81" stop-opacity="1"></stop><stop offset="80%" stop-color="#94b267" stop-opacity="1"></stop></linearGradient></defs><defs><linearGradient id="grad2_4" x1="0%" y1="100%" x2="66.7%" y2="0%"><stop offset="20%" stop-color="#a7be81" stop-opacity="1"></stop><stop offset="80%" stop-color="#b9ca9c" stop-opacity="1"></stop></linearGradient></defs><defs><linearGradient id="grad2_5" x1="0%" y1="100%" x2="66.7%" y2="0%"><stop offset="20%" stop-color="#cbd6b7" stop-opacity="1"></stop><stop offset="80%" stop-color="#b9ca9c" stop-opacity="1"></stop></linearGradient></defs><defs><linearGradient id="grad2_6" x1="0%" y1="100%" x2="66.7%" y2="0%"><stop offset="20%" stop-color="#cbd6b7" stop-opacity="1"></stop><stop offset="80%" stop-color="#dce2d2" stop-opacity="1"></stop></linearGradient></defs><defs><linearGradient id="grad2_7" x1="0%" y1="100%" x2="66.7%" y2="0%"><stop offset="20%" stop-color="#eeeeee" stop-opacity="1"></stop><stop offset="80%" stop-color="#dce2d2" stop-opacity="1"></stop></linearGradient></defs><g transform="translate(900, 600)"><path d="M-540.8 0C-539.2 -76.2 -537.6 -152.3 -499.7 -207C-461.8 -261.6 -387.6 -294.8 -330.9 -330.9C-274.3 -367.1 -235.2 -406.1 -182.9 -441.6C-130.7 -477.1 -65.3 -509 0 -540.8L0 0Z" fill="#e5e8e0"></path><path d="M-473.2 0C-471.8 -66.6 -470.4 -133.3 -437.2 -181.1C-404 -228.9 -339.1 -257.9 -289.6 -289.6C-240 -321.2 -205.8 -355.4 -160.1 -386.4C-114.4 -417.5 -57.2 -445.3 0 -473.2L0 0Z" fill="#d4dcc4"></path><path d="M-405.6 0C-404.4 -57.1 -403.2 -114.2 -374.7 -155.2C-346.3 -196.2 -290.7 -221.1 -248.2 -248.2C-205.7 -275.3 -176.4 -304.6 -137.2 -331.2C-98 -357.8 -49 -381.7 0 -405.6L0 0Z" fill="#c2d0a9"></path><path d="M-338 0C-337 -47.6 -336 -95.2 -312.3 -129.4C-288.6 -163.5 -242.2 -184.2 -206.8 -206.8C-171.4 -229.4 -147 -253.8 -114.3 -276C-81.7 -298.2 -40.8 -318.1 0 -338L0 0Z" fill="#b0c48f"></path><path d="M-270.4 0C-269.6 -38.1 -268.8 -76.2 -249.8 -103.5C-230.9 -130.8 -193.8 -147.4 -165.5 -165.5C-137.1 -183.5 -117.6 -203.1 -91.5 -220.8C-65.3 -238.5 -32.7 -254.5 0 -270.4L0 0Z" fill="#9eb874"></path><path d="M-202.8 0C-202.2 -28.6 -201.6 -57.1 -187.4 -77.6C-173.2 -98.1 -145.3 -110.5 -124.1 -124.1C-102.9 -137.6 -88.2 -152.3 -68.6 -165.6C-49 -178.9 -24.5 -190.9 0 -202.8L0 0Z" fill="#8bad59"></path><path d="M-135.2 0C-134.8 -19 -134.4 -38.1 -124.9 -51.7C-115.4 -65.4 -96.9 -73.7 -82.7 -82.7C-68.6 -91.8 -58.8 -101.5 -45.7 -110.4C-32.7 -119.3 -16.3 -127.2 0 -135.2L0 0Z" fill="#78a13e"></path><path d="M-67.6 0C-67.4 -9.5 -67.2 -19 -62.5 -25.9C-57.7 -32.7 -48.4 -36.8 -41.4 -41.4C-34.3 -45.9 -29.4 -50.8 -22.9 -55.2C-16.3 -59.6 -8.2 -63.6 0 -67.6L0 0Z" fill="#6e9b2f"></path></g><g transform="translate(0, 0)"><path d="M540.8 0C499 57.1 457.2 114.3 436.1 180.6C414.9 247 414.5 322.5 379.7 379.7C345 436.9 276 475.9 207 499.7C138 523.5 69 532.1 0 540.8L0 0Z" fill="#e5e8e0"></path><path d="M473.2 0C436.6 50 400.1 100 381.6 158C363.1 216.1 362.7 282.2 332.3 332.3C301.9 382.3 241.5 416.4 181.1 437.2C120.7 458 60.4 465.6 0 473.2L0 0Z" fill="#d4dcc4"></path><path d="M405.6 0C374.3 42.9 342.9 85.7 327.1 135.5C311.2 185.2 310.8 241.9 284.8 284.8C258.7 327.7 207 356.9 155.2 374.7C103.5 392.6 51.7 399.1 0 405.6L0 0Z" fill="#c2d0a9"></path><path d="M338 0C311.9 35.7 285.8 71.4 272.5 112.9C259.3 154.4 259 201.6 237.3 237.3C215.6 273.1 172.5 297.4 129.4 312.3C86.2 327.2 43.1 332.6 0 338L0 0Z" fill="#b0c48f"></path><path d="M270.4 0C249.5 28.6 228.6 57.1 218 90.3C207.5 123.5 207.2 161.2 189.9 189.9C172.5 218.5 138 237.9 103.5 249.8C69 261.7 34.5 266.1 0 270.4L0 0Z" fill="#9eb874"></path><path d="M202.8 0C187.1 21.4 171.5 42.9 163.5 67.7C155.6 92.6 155.4 120.9 142.4 142.4C129.4 163.9 103.5 178.4 77.6 187.4C51.7 196.3 25.9 199.6 0 202.8L0 0Z" fill="#8bad59"></path><path d="M135.2 0C124.8 14.3 114.3 28.6 109 45.2C103.7 61.7 103.6 80.6 94.9 94.9C86.2 109.2 69 119 51.7 124.9C34.5 130.9 17.2 133 0 135.2L0 0Z" fill="#78a13e"></path><path d="M67.6 0C62.4 7.1 57.2 14.3 54.5 22.6C51.9 30.9 51.8 40.3 47.5 47.5C43.1 54.6 34.5 59.5 25.9 62.5C17.2 65.4 8.6 66.5 0 67.6L0 0Z" fill="#6e9b2f"></path></g></svg>