<svg width="900" height="600" viewBox="0 0 900 600" fill="none" xmlns="http://www.w3.org/2000/svg">
<g clip-path="url(#clip0_26_1121)">
<path d="M900 0H0V600H900V0Z" fill="#001220"/>
<path d="M440.3 600C455.4 541.9 470.4 483.8 494.4 432C518.4 380.2 551.3 334.6 589.6 289.6C627.8 244.6 671.4 200.1 724.1 175.3C776.7 150.5 838.4 145.4 900 140.3V600H440.3Z" fill="#041B2D"/>
<path d="M497.8 600C510.9 549.2 524.1 498.4 545.1 453C566.1 407.7 594.9 367.8 628.4 328.4C661.9 289 700 250.1 746.1 228.4C792.1 206.7 846.1 202.2 900 197.8V600H497.8Z" fill="#052D48"/>
<path d="M555.2 600C566.5 556.4 577.8 512.9 595.8 474C613.8 435.1 638.5 401 667.2 367.2C695.9 333.4 728.6 300.1 768.1 281.5C807.5 262.9 853.8 259 900 255.2V600H555.2Z" fill="#064165"/>
<path d="M612.7 600C622.1 563.7 631.5 527.4 646.5 495C661.5 462.6 682.1 434.1 706 406C729.9 377.8 757.2 350 790 334.6C822.9 319.1 861.5 315.9 900 312.7V600H612.7Z" fill="#075584"/>
<path d="M670.1 600C677.7 571 685.2 541.9 697.2 516C709.2 490.1 725.7 467.3 744.8 444.8C763.9 422.3 785.7 400 812 387.6C838.4 375.2 869.2 372.7 900 370.1V600H670.1Z" fill="#086AA4"/>
<path d="M727.6 600C733.3 578.2 738.9 556.4 747.9 537C756.9 517.6 769.2 500.5 783.6 483.6C797.9 466.7 814.3 450 834 440.7C853.8 431.4 876.9 429.5 900 427.6V600H727.6Z" fill="#0C7FC6"/>
<path d="M785.1 600C788.8 585.5 792.6 571 798.6 558C804.6 545 812.8 533.7 822.4 522.4C832 511.1 842.9 500 856 493.8C869.2 487.6 884.6 486.3 900 485.1V600H785.1Z" fill="#1396E8"/>
<path d="M842.5 600C844.4 592.7 846.3 585.5 849.3 579C852.3 572.5 856.4 566.8 861.2 561.2C866 555.6 871.4 550 878 546.9C884.6 543.8 892.3 543.2 900 542.5V600H842.5Z" fill="#17A1FA"/>
<path d="M459.7 0C445.3 56.6 430.8 113.2 411.1 170.3C391.4 227.4 366.5 284.9 325.1 325.1C283.6 365.2 225.7 387.9 168.8 407.4C111.8 427 55.9 443.3 0 459.7V0H459.7Z" fill="#041B2D"/>
<path d="M402.2 0C389.6 49.5 377 99.1 359.7 149C342.5 199 320.7 249.3 284.4 284.4C248.2 319.5 197.5 339.4 147.7 356.5C97.9 373.6 48.9 387.9 0 402.2V0H402.2Z" fill="#052D48"/>
<path d="M344.8 0C333.9 42.5 323.1 84.9 308.3 127.7C293.6 170.5 274.9 213.7 243.8 243.8C212.7 273.9 169.3 290.9 126.6 305.6C83.9 320.2 41.9 332.5 0 344.8V0H344.8Z" fill="#064165"/>
<path d="M287.3 0C278.3 35.4 269.3 70.8 257 106.4C244.6 142.1 229.1 178.1 203.2 203.2C177.3 228.2 141.1 242.4 105.5 254.6C69.9 266.9 34.9 277.1 0 287.3V0H287.3Z" fill="#075584"/>
<path d="M229.9 0C222.6 28.3 215.4 56.6 205.6 85.1C195.7 113.7 183.2 142.5 162.5 162.5C141.8 182.6 112.8 193.9 84.4 203.7C55.9 213.5 28 221.7 0 229.9V0H229.9Z" fill="#086AA4"/>
<path d="M172.4 0C167 21.2 161.6 42.5 154.2 63.9C146.8 85.3 137.4 106.8 121.9 121.9C106.4 136.9 84.6 145.5 63.3 152.8C41.9 160.1 21 166.3 0 172.4V0H172.4Z" fill="#0C7FC6"/>
<path d="M114.9 0C111.3 14.2 107.7 28.3 102.8 42.6C97.9 56.8 91.6 71.2 81.3 81.3C70.9 91.3 56.4 97 42.2 101.9C28 106.7 14 110.8 0 114.9V0H114.9Z" fill="#1396E8"/>
<path d="M57.5 0C55.7 7.1 53.9 14.2 51.4 21.3C48.9 28.4 45.8 35.6 40.6 40.6C35.5 45.6 28.2 48.5 21.1 50.9C14 53.4 7 55.4 0 57.5V0H57.5Z" fill="#17A1FA"/>
</g>
<defs>
<clipPath id="clip0_26_1121">
<rect width="900" height="600" fill="white"/>
</clipPath>
</defs>
</svg>
