<svg width="900" height="600" viewBox="0 0 900 600" fill="none" xmlns="http://www.w3.org/2000/svg">
<g clip-path="url(#clip0_41_1158)">
<path d="M900 0H0V600H900V0Z" fill="#1A1C15"/>
<path d="M540.8 0C517 64.9 493.1 129.9 468.4 194C443.7 258.2 418.3 321.6 375.5 375.5C332.6 429.3 272.4 473.7 207 499.7C141.5 525.6 70.7 533.2 0 540.8V0H540.8Z" fill="#222618"/>
<path d="M473.2 0C452.3 56.8 431.4 113.6 409.9 169.8C388.3 225.9 366 281.4 328.5 328.5C291.1 375.7 238.4 414.5 181.1 437.2C123.8 459.9 61.9 466.6 0 473.2V0H473.2Z" fill="#313B1D"/>
<path d="M405.6 0C387.7 48.7 369.8 97.4 351.3 145.5C332.8 193.6 313.7 241.2 281.6 281.6C249.5 322 204.3 355.3 155.2 374.7C106.1 394.2 53.1 399.9 0 405.6V0H405.6Z" fill="#405222"/>
<path d="M338 0C323.1 40.6 308.2 81.2 292.8 121.3C277.3 161.4 261.4 201 234.7 234.7C207.9 268.3 170.3 296.1 129.4 312.3C88.4 328.5 44.2 333.3 0 338V0H338Z" fill="#4F6926"/>
<path d="M270.4 0C258.5 32.5 246.5 64.9 234.2 97C221.9 129.1 209.1 160.8 187.7 187.7C166.3 214.7 136.2 236.8 103.5 249.8C70.7 262.8 35.4 266.6 0 270.4V0H270.4Z" fill="#5F822B"/>
<path d="M202.8 0C193.9 24.3 184.9 48.7 175.7 72.8C166.4 96.8 156.9 120.6 140.8 140.8C124.7 161 102.2 177.6 77.6 187.4C53.1 197.1 26.5 200 0 202.8V0H202.8Z" fill="#6E9B2F"/>
<path d="M135.2 0C129.2 16.2 123.3 32.5 117.1 48.5C110.9 64.5 104.6 80.4 93.9 93.9C83.2 107.3 68.1 118.4 51.7 124.9C35.4 131.4 17.7 133.3 0 135.2V0H135.2Z" fill="#7DB632"/>
<path d="M67.6 0C64.6 8.1 61.6 16.2 58.6 24.3C55.5 32.3 52.3 40.2 46.9 46.9C41.6 53.7 34.1 59.2 25.9 62.5C17.7 65.7 8.8 66.7 0 67.6V0H67.6Z" fill="#85C334"/>
<path d="M359 599.8C377.6 529 396.2 458.2 433.2 406.5C470.3 354.8 525.8 322.2 568.2 268.2C610.5 214.1 639.8 138.6 692.8 100.1C745.9 61.7 822.9 60.3 899.8 59V599.8H359Z" fill="#222618"/>
<path d="M426.6 599.8C442.9 537.9 459.1 475.9 491.6 430.7C524 385.5 572.6 356.9 609.6 309.6C646.7 262.3 672.3 196.2 718.7 162.6C765.1 129 832.5 127.8 899.8 126.6V599.8H426.6Z" fill="#313B1D"/>
<path d="M494.2 599.8C508.1 546.7 522.1 493.6 549.9 454.9C577.7 416.1 619.3 391.6 651.1 351.1C682.8 310.5 704.8 253.9 744.6 225.1C784.4 196.2 842.1 195.2 899.8 194.2V599.8H494.2Z" fill="#405222"/>
<path d="M561.8 599.8C573.4 555.6 585 511.3 608.2 479C631.4 446.7 666.1 426.3 692.5 392.5C719 358.7 737.3 311.5 770.4 287.5C803.6 263.5 851.7 262.6 899.8 261.8V599.8H561.8Z" fill="#4F6926"/>
<path d="M629.4 599.8C638.7 564.4 648 529 666.5 503.2C685 477.3 712.8 461 734 434C755.2 406.9 769.8 369.2 796.3 350C822.9 330.7 861.3 330.1 899.8 329.4V599.8H629.4Z" fill="#5F822B"/>
<path d="M697 599.8C704 573.3 710.9 546.7 724.8 527.3C738.7 507.9 759.6 495.7 775.4 475.4C791.3 455.2 802.3 426.8 822.2 412.4C842.1 398 870.9 397.5 899.8 397V599.8H697Z" fill="#6E9B2F"/>
<path d="M764.6 599.8C769.2 582.1 773.9 564.4 783.2 551.5C792.4 538.6 806.3 530.4 816.9 516.9C827.5 503.4 834.8 484.5 848.1 474.9C861.3 465.3 880.6 464.9 899.8 464.6V599.8H764.6Z" fill="#7DB632"/>
<path d="M832.2 599.8C834.5 591 836.8 582.1 841.5 575.6C846.1 569.2 853.1 565.1 858.3 558.3C863.6 551.6 867.3 542.1 873.9 537.3C880.6 532.5 890.2 532.4 899.8 532.2V599.8H832.2Z" fill="#85C334"/>
</g>
<defs>
<clipPath id="clip0_41_1158">
<rect width="900" height="600" fill="white"/>
</clipPath>
</defs>
</svg>
