<svg width="450" height="450" viewBox="0 0 450 450" fill="none" xmlns="http://www.w3.org/2000/svg">
<g clip-path="url(#clip0_29_1127)">
<g clip-path="url(#clip1_29_1127)">
<path d="M205 266L196 286L246 266H205Z" fill="#85C334" stroke="#85C334" stroke-linejoin="bevel"/>
<path d="M286 318L281 263L246 266L286 318Z" fill="#3E5123" stroke="#3E5123" stroke-linejoin="bevel"/>
<path d="M246 266L272 208L205 266H246Z" fill="#60882C" stroke="#60882C" stroke-linejoin="bevel"/>
<path d="M196 286L286 318L246 266L196 286Z" fill="#6C9B2F" stroke="#6C9B2F" stroke-linejoin="bevel"/>
<path d="M242 374L287 333L286 318L242 374Z" fill="#32401F" stroke="#32401F" stroke-linejoin="bevel"/>
<path d="M116 287L166 348L196 286L116 287Z" fill="#6C9B2F" stroke="#6C9B2F" stroke-linejoin="bevel"/>
<path d="M196 286L242 374L286 318L196 286Z" fill="#27301B" stroke="#27301B" stroke-linejoin="bevel"/>
<path d="M166 348L242 374L196 286L166 348Z" fill="#85C334" stroke="#85C334" stroke-linejoin="bevel"/>
<path d="M281 263L272 208L246 266L281 263Z" fill="#79AF32" stroke="#79AF32" stroke-linejoin="bevel"/>
<path d="M166 348L170 362L242 374L166 348Z" fill="#27301B" stroke="#27301B" stroke-linejoin="bevel"/>
<path d="M174 173L132 240L205 266L174 173Z" fill="#111111" stroke="#111111" stroke-linejoin="bevel"/>
<path d="M205 266L132 240L196 286L205 266Z" fill="#496326" stroke="#496326" stroke-linejoin="bevel"/>
<path d="M166 348L142 377L170 362L166 348Z" fill="#79AF32" stroke="#79AF32" stroke-linejoin="bevel"/>
<path d="M286 318L332 281L281 263L286 318Z" fill="#79AF32" stroke="#79AF32" stroke-linejoin="bevel"/>
<path d="M281 263L340 266L272 208L281 263Z" fill="#79AF32" stroke="#79AF32" stroke-linejoin="bevel"/>
<path d="M364 314L332 281L286 318L364 314Z" fill="#496326" stroke="#496326" stroke-linejoin="bevel"/>
<path d="M132 240L116 287L196 286L132 240Z" fill="#79AF32" stroke="#79AF32" stroke-linejoin="bevel"/>
<path d="M116 287L111 302L166 348L116 287Z" fill="#6C9B2F" stroke="#6C9B2F" stroke-linejoin="bevel"/>
<path d="M332 281L340 266L281 263L332 281Z" fill="#32401F" stroke="#32401F" stroke-linejoin="bevel"/>
<path d="M272 208L202 171L205 266L272 208Z" fill="#27301B" stroke="#27301B" stroke-linejoin="bevel"/>
<path d="M132 240L109 265L116 287L132 240Z" fill="#85C334" stroke="#85C334" stroke-linejoin="bevel"/>
<path d="M116 287L109 265L111 302L116 287Z" fill="#60882C" stroke="#60882C" stroke-linejoin="bevel"/>
<path d="M272 208L250 171H202L272 208Z" fill="#557529" stroke="#557529" stroke-linejoin="bevel"/>
<path d="M284 158L250 171L272 208L284 158Z" fill="#85C334" stroke="#85C334" stroke-linejoin="bevel"/>
<path d="M250 171L245 168L202 171H250Z" fill="#6C9B2F" stroke="#6C9B2F" stroke-linejoin="bevel"/>
<path d="M118 358L131 363L166 348L118 358Z" fill="#111111" stroke="#111111" stroke-linejoin="bevel"/>
<path d="M170 362L198 450L242 374L170 362Z" fill="#32401F" stroke="#32401F" stroke-linejoin="bevel"/>
<path d="M131 363L142 377L166 348L131 363Z" fill="#6C9B2F" stroke="#6C9B2F" stroke-linejoin="bevel"/>
<path d="M202 171L174 173L205 266L202 171Z" fill="#79AF32" stroke="#79AF32" stroke-linejoin="bevel"/>
<path d="M132 240L91 176L109 265L132 240Z" fill="#32401F" stroke="#32401F" stroke-linejoin="bevel"/>
<path d="M245 168L206 161L202 171L245 168Z" fill="#111111" stroke="#111111" stroke-linejoin="bevel"/>
<path d="M202 171L206 161L174 173L202 171Z" fill="#6C9B2F" stroke="#6C9B2F" stroke-linejoin="bevel"/>
<path d="M312 409L327 366L287 333L312 409Z" fill="#60882C" stroke="#60882C" stroke-linejoin="bevel"/>
<path d="M287 333L364 314L286 318L287 333Z" fill="#3E5123" stroke="#3E5123" stroke-linejoin="bevel"/>
<path d="M332 281L369 306L340 266L332 281Z" fill="#79AF32" stroke="#79AF32" stroke-linejoin="bevel"/>
<path d="M111 302L118 358L166 348L111 302Z" fill="#111111" stroke="#111111" stroke-linejoin="bevel"/>
<path d="M131 363L118 358L142 377L131 363Z" fill="#1D2017" stroke="#1D2017" stroke-linejoin="bevel"/>
<path d="M327 366L364 314L287 333L327 366Z" fill="#1D2017" stroke="#1D2017" stroke-linejoin="bevel"/>
<path d="M378 175L284 158L272 208L378 175Z" fill="#60882C" stroke="#60882C" stroke-linejoin="bevel"/>
<path d="M250 171L284 158L245 168L250 171Z" fill="#85C334" stroke="#85C334" stroke-linejoin="bevel"/>
<path d="M245 168L283 125L206 161L245 168Z" fill="#32401F" stroke="#32401F" stroke-linejoin="bevel"/>
<path d="M364 314L369 306L332 281L364 314Z" fill="#79AF32" stroke="#79AF32" stroke-linejoin="bevel"/>
<path d="M340 266L380 209L272 208L340 266Z" fill="#111111" stroke="#111111" stroke-linejoin="bevel"/>
<path d="M242 374L312 409L287 333L242 374Z" fill="#27301B" stroke="#27301B" stroke-linejoin="bevel"/>
<path d="M327 366L391 389L364 314L327 366Z" fill="#1D2017" stroke="#1D2017" stroke-linejoin="bevel"/>
<path d="M450 334L383 294L369 306L450 334Z" fill="#79AF32" stroke="#79AF32" stroke-linejoin="bevel"/>
<path d="M257 450L312 409L242 374L257 450Z" fill="#557529" stroke="#557529" stroke-linejoin="bevel"/>
<path d="M450 315L383 294L450 334V315Z" fill="#1D2017" stroke="#1D2017" stroke-linejoin="bevel"/>
<path d="M369 306L383 294L340 266L369 306Z" fill="#1D2017" stroke="#1D2017" stroke-linejoin="bevel"/>
<path d="M383 294L381 251L340 266L383 294Z" fill="#27301B" stroke="#27301B" stroke-linejoin="bevel"/>
<path d="M167 132L150 142L174 173L167 132Z" fill="#6C9B2F" stroke="#6C9B2F" stroke-linejoin="bevel"/>
<path d="M174 173L91 176L132 240L174 173Z" fill="#496326" stroke="#496326" stroke-linejoin="bevel"/>
<path d="M167 132L174 173L206 161L167 132Z" fill="#6C9B2F" stroke="#6C9B2F" stroke-linejoin="bevel"/>
<path d="M44 286L64 320L111 302L44 286Z" fill="#27301B" stroke="#27301B" stroke-linejoin="bevel"/>
<path d="M111 302L69 344L118 358L111 302Z" fill="#111111" stroke="#111111" stroke-linejoin="bevel"/>
<path d="M183 450L170 362L142 377L183 450Z" fill="#79AF32" stroke="#79AF32" stroke-linejoin="bevel"/>
<path d="M44 286L111 302L109 265L44 286Z" fill="#27301B" stroke="#27301B" stroke-linejoin="bevel"/>
<path d="M125 431L142 377L83 395L125 431Z" fill="#111111" stroke="#111111" stroke-linejoin="bevel"/>
<path d="M183 450H198L170 362L183 450Z" fill="#3E5123" stroke="#3E5123" stroke-linejoin="bevel"/>
<path d="M198 450H257L242 374L198 450Z" fill="#1D2017" stroke="#1D2017" stroke-linejoin="bevel"/>
<path d="M250 72L167 132L206 161L250 72Z" fill="#79AF32" stroke="#79AF32" stroke-linejoin="bevel"/>
<path d="M64 320L69 344L111 302L64 320Z" fill="#85C334" stroke="#85C334" stroke-linejoin="bevel"/>
<path d="M125 431L183 450L142 377L125 431Z" fill="#27301B" stroke="#27301B" stroke-linejoin="bevel"/>
<path d="M379 113L283 125L284 158L379 113Z" fill="#79AF32" stroke="#79AF32" stroke-linejoin="bevel"/>
<path d="M284 158L283 125L245 168L284 158Z" fill="#60882C" stroke="#60882C" stroke-linejoin="bevel"/>
<path d="M389 195L380 209L450 218L389 195Z" fill="#496326" stroke="#496326" stroke-linejoin="bevel"/>
<path d="M381 251L380 209L340 266L381 251Z" fill="#3E5123" stroke="#3E5123" stroke-linejoin="bevel"/>
<path d="M257 450H286L312 409L257 450Z" fill="#496326" stroke="#496326" stroke-linejoin="bevel"/>
<path d="M130 136L91 176L150 142L130 136Z" fill="#85C334" stroke="#85C334" stroke-linejoin="bevel"/>
<path d="M150 142L91 176L174 173L150 142Z" fill="#32401F" stroke="#32401F" stroke-linejoin="bevel"/>
<path d="M83 395L142 377L118 358L83 395Z" fill="#1D2017" stroke="#1D2017" stroke-linejoin="bevel"/>
<path d="M69 344L83 395L118 358L69 344Z" fill="#557529" stroke="#557529" stroke-linejoin="bevel"/>
<path d="M142 103L130 136L150 142L142 103Z" fill="#32401F" stroke="#32401F" stroke-linejoin="bevel"/>
<path d="M91 176L44 286L109 265L91 176Z" fill="#1D2017" stroke="#1D2017" stroke-linejoin="bevel"/>
<path d="M64 320L0 323L69 344L64 320Z" fill="#1D2017" stroke="#1D2017" stroke-linejoin="bevel"/>
<path d="M12 450H67L0 435L12 450Z" fill="#3E5123" stroke="#3E5123" stroke-linejoin="bevel"/>
<path d="M450 218L380 209L381 251L450 218Z" fill="#60882C" stroke="#60882C" stroke-linejoin="bevel"/>
<path d="M380 209L378 175L272 208L380 209Z" fill="#1D2017" stroke="#1D2017" stroke-linejoin="bevel"/>
<path d="M389 195L378 175L380 209L389 195Z" fill="#3E5123" stroke="#3E5123" stroke-linejoin="bevel"/>
<path d="M376 431L391 389L327 366L376 431Z" fill="#111111" stroke="#111111" stroke-linejoin="bevel"/>
<path d="M383 294L450 315L381 251L383 294Z" fill="#557529" stroke="#557529" stroke-linejoin="bevel"/>
<path d="M376 431L327 366L312 409L376 431Z" fill="#557529" stroke="#557529" stroke-linejoin="bevel"/>
<path d="M286 450H336L312 409L286 450Z" fill="#85C334" stroke="#85C334" stroke-linejoin="bevel"/>
<path d="M130 136L116 114L91 176L130 136Z" fill="#111111" stroke="#111111" stroke-linejoin="bevel"/>
<path d="M167 132L142 103L150 142L167 132Z" fill="#85C334" stroke="#85C334" stroke-linejoin="bevel"/>
<path d="M203 54L142 103L167 132L203 54Z" fill="#79AF32" stroke="#79AF32" stroke-linejoin="bevel"/>
<path d="M142 103L116 114L130 136L142 103Z" fill="#60882C" stroke="#60882C" stroke-linejoin="bevel"/>
<path d="M0 243V323L44 286L0 243Z" fill="#6C9B2F" stroke="#6C9B2F" stroke-linejoin="bevel"/>
<path d="M336 450L376 431L312 409L336 450Z" fill="#6C9B2F" stroke="#6C9B2F" stroke-linejoin="bevel"/>
<path d="M338 63L250 72L283 125L338 63Z" fill="#27301B" stroke="#27301B" stroke-linejoin="bevel"/>
<path d="M283 125L250 72L206 161L283 125Z" fill="#557529" stroke="#557529" stroke-linejoin="bevel"/>
<path d="M450 334L364 314L391 389L450 334Z" fill="#111111" stroke="#111111" stroke-linejoin="bevel"/>
<path d="M450 334L369 306L364 314L450 334Z" fill="#6C9B2F" stroke="#6C9B2F" stroke-linejoin="bevel"/>
<path d="M0 377L83 395L69 344L0 377Z" fill="#32401F" stroke="#32401F" stroke-linejoin="bevel"/>
<path d="M83 395L67 450L125 431L83 395Z" fill="#60882C" stroke="#60882C" stroke-linejoin="bevel"/>
<path d="M125 431L67 450H183L125 431Z" fill="#557529" stroke="#557529" stroke-linejoin="bevel"/>
<path d="M0 243L44 286L91 176L0 243Z" fill="#6C9B2F" stroke="#6C9B2F" stroke-linejoin="bevel"/>
<path d="M44 286L0 323L64 320L44 286Z" fill="#79AF32" stroke="#79AF32" stroke-linejoin="bevel"/>
<path d="M450 366V334L391 389L450 366Z" fill="#1D2017" stroke="#1D2017" stroke-linejoin="bevel"/>
<path d="M120 44L80 110L116 114L120 44Z" fill="#32401F" stroke="#32401F" stroke-linejoin="bevel"/>
<path d="M116 114L80 110L91 176L116 114Z" fill="#111111" stroke="#111111" stroke-linejoin="bevel"/>
<path d="M120 44L116 114L142 103L120 44Z" fill="#496326" stroke="#496326" stroke-linejoin="bevel"/>
<path d="M22 177L0 243L91 176L22 177Z" fill="#6C9B2F" stroke="#6C9B2F" stroke-linejoin="bevel"/>
<path d="M18 145L22 177L91 176L18 145Z" fill="#1D2017" stroke="#1D2017" stroke-linejoin="bevel"/>
<path d="M450 160L379 113L378 175L450 160Z" fill="#111111" stroke="#111111" stroke-linejoin="bevel"/>
<path d="M378 175L379 113L284 158L378 175Z" fill="#1D2017" stroke="#1D2017" stroke-linejoin="bevel"/>
<path d="M450 160L378 175L389 195L450 160Z" fill="#111111" stroke="#111111" stroke-linejoin="bevel"/>
<path d="M247 31L203 54L250 72L247 31Z" fill="#32401F" stroke="#32401F" stroke-linejoin="bevel"/>
<path d="M250 72L203 54L167 132L250 72Z" fill="#85C334" stroke="#85C334" stroke-linejoin="bevel"/>
<path d="M450 315V218L381 251L450 315Z" fill="#557529" stroke="#557529" stroke-linejoin="bevel"/>
<path d="M415 436L450 366L391 389L415 436Z" fill="#496326" stroke="#496326" stroke-linejoin="bevel"/>
<path d="M405 450L415 436L376 431L405 450Z" fill="#1D2017" stroke="#1D2017" stroke-linejoin="bevel"/>
<path d="M376 431L415 436L391 389L376 431Z" fill="#111111" stroke="#111111" stroke-linejoin="bevel"/>
<path d="M336 450H405L376 431L336 450Z" fill="#3E5123" stroke="#3E5123" stroke-linejoin="bevel"/>
<path d="M0 323V377L69 344L0 323Z" fill="#557529" stroke="#557529" stroke-linejoin="bevel"/>
<path d="M450 218V194L389 195L450 218Z" fill="#60882C" stroke="#60882C" stroke-linejoin="bevel"/>
<path d="M337 37L338 63L371 23L337 37Z" fill="#6C9B2F" stroke="#6C9B2F" stroke-linejoin="bevel"/>
<path d="M379 113L338 63L283 125L379 113Z" fill="#6C9B2F" stroke="#6C9B2F" stroke-linejoin="bevel"/>
<path d="M0 172V176L22 177L0 172Z" fill="#3E5123" stroke="#3E5123" stroke-linejoin="bevel"/>
<path d="M22 177L0 176V243L22 177Z" fill="#32401F" stroke="#32401F" stroke-linejoin="bevel"/>
<path d="M80 110L18 145L91 176L80 110Z" fill="#111111" stroke="#111111" stroke-linejoin="bevel"/>
<path d="M18 145L0 172L22 177L18 145Z" fill="#79AF32" stroke="#79AF32" stroke-linejoin="bevel"/>
<path d="M337 37L247 31L250 72L337 37Z" fill="#3E5123" stroke="#3E5123" stroke-linejoin="bevel"/>
<path d="M203 54L120 44L142 103L203 54Z" fill="#6C9B2F" stroke="#6C9B2F" stroke-linejoin="bevel"/>
<path d="M450 194V160L389 195L450 194Z" fill="#6C9B2F" stroke="#6C9B2F" stroke-linejoin="bevel"/>
<path d="M80 110L0 67L18 145L80 110Z" fill="#32401F" stroke="#32401F" stroke-linejoin="bevel"/>
<path d="M138 11L120 44L203 54L138 11Z" fill="#496326" stroke="#496326" stroke-linejoin="bevel"/>
<path d="M0 435L67 450L83 395L0 435Z" fill="#32401F" stroke="#32401F" stroke-linejoin="bevel"/>
<path d="M0 377V435L83 395L0 377Z" fill="#1D2017" stroke="#1D2017" stroke-linejoin="bevel"/>
<path d="M371 23L338 63L379 113L371 23Z" fill="#32401F" stroke="#32401F" stroke-linejoin="bevel"/>
<path d="M338 63L337 37L250 72L338 63Z" fill="#60882C" stroke="#60882C" stroke-linejoin="bevel"/>
<path d="M450 160L435 107L379 113L450 160Z" fill="#32401F" stroke="#32401F" stroke-linejoin="bevel"/>
<path d="M405 450H450L415 436L405 450Z" fill="#111111" stroke="#111111" stroke-linejoin="bevel"/>
<path d="M415 436L450 450V366L415 436Z" fill="#496326" stroke="#496326" stroke-linejoin="bevel"/>
<path d="M0 435V450H12L0 435Z" fill="#60882C" stroke="#60882C" stroke-linejoin="bevel"/>
<path d="M450 160V122L435 107L450 160Z" fill="#60882C" stroke="#60882C" stroke-linejoin="bevel"/>
<path d="M266 0H206L247 31L266 0Z" fill="#111111" stroke="#111111" stroke-linejoin="bevel"/>
<path d="M247 31L206 0L203 54L247 31Z" fill="#557529" stroke="#557529" stroke-linejoin="bevel"/>
<path d="M181 0L138 11L203 54L181 0Z" fill="#6C9B2F" stroke="#6C9B2F" stroke-linejoin="bevel"/>
<path d="M13 51L0 67L80 110L13 51Z" fill="#496326" stroke="#496326" stroke-linejoin="bevel"/>
<path d="M275 0H266L247 31L275 0Z" fill="#85C334" stroke="#85C334" stroke-linejoin="bevel"/>
<path d="M206 0H181L203 54L206 0Z" fill="#111111" stroke="#111111" stroke-linejoin="bevel"/>
<path d="M337 37L275 0L247 31L337 37Z" fill="#496326" stroke="#496326" stroke-linejoin="bevel"/>
<path d="M371 23L326 12L337 37L371 23Z" fill="#27301B" stroke="#27301B" stroke-linejoin="bevel"/>
<path d="M337 37L326 12L275 0L337 37Z" fill="#79AF32" stroke="#79AF32" stroke-linejoin="bevel"/>
<path d="M181 0H135L138 11L181 0Z" fill="#6C9B2F" stroke="#6C9B2F" stroke-linejoin="bevel"/>
<path d="M138 11L135 0L120 44L138 11Z" fill="#60882C" stroke="#60882C" stroke-linejoin="bevel"/>
<path d="M450 55L379 113L435 107L450 55Z" fill="#557529" stroke="#557529" stroke-linejoin="bevel"/>
<path d="M450 55L371 23L379 113L450 55Z" fill="#111111" stroke="#111111" stroke-linejoin="bevel"/>
<path d="M13 51L80 110L120 44L13 51Z" fill="#79AF32" stroke="#79AF32" stroke-linejoin="bevel"/>
<path d="M18 145L0 67V172L18 145Z" fill="#85C334" stroke="#85C334" stroke-linejoin="bevel"/>
<path d="M24 0L13 51L120 44L24 0Z" fill="#111111" stroke="#111111" stroke-linejoin="bevel"/>
<path d="M450 122V55L435 107L450 122Z" fill="#60882C" stroke="#60882C" stroke-linejoin="bevel"/>
<path d="M428 0H380L371 23L428 0Z" fill="#111111" stroke="#111111" stroke-linejoin="bevel"/>
<path d="M371 23L380 0L326 12L371 23Z" fill="#1D2017" stroke="#1D2017" stroke-linejoin="bevel"/>
<path d="M326 12L380 0H275L326 12Z" fill="#32401F" stroke="#32401F" stroke-linejoin="bevel"/>
<path d="M24 0L0 43L13 51L24 0Z" fill="#111111" stroke="#111111" stroke-linejoin="bevel"/>
<path d="M13 51L0 43V67L13 51Z" fill="#85C334" stroke="#85C334" stroke-linejoin="bevel"/>
<path d="M135 0H24L120 44L135 0Z" fill="#85C334" stroke="#85C334" stroke-linejoin="bevel"/>
<path d="M450 55L428 0L371 23L450 55Z" fill="#557529" stroke="#557529" stroke-linejoin="bevel"/>
<path d="M450 55V0H428L450 55Z" fill="#85C334" stroke="#85C334" stroke-linejoin="bevel"/>
<path d="M24 0H0V43L24 0Z" fill="#1D2017" stroke="#1D2017" stroke-linejoin="bevel"/>
</g>
<g clip-path="url(#clip2_29_1127)">
<path d="M375 216.667C375 204.359 368.255 193.729 358.333 187.958V108.338C358.333 103.781 354.698 91.6666 341.667 91.6666C337.958 91.6666 334.276 92.9062 331.26 95.3229L286.974 130.755C264.729 148.536 236.802 158.333 208.333 158.333H108.333C89.9219 158.333 75 173.255 75 191.667V241.667C75 260.078 89.9219 275 108.333 275H125.885C125.161 280.458 124.75 286.01 124.75 291.667C124.75 312.38 129.573 331.953 138.062 349.448C140.766 355.016 146.667 358.333 152.854 358.333H191.542C205.109 358.333 213.255 342.792 205.031 332C196.49 320.792 191.411 306.812 191.411 291.667C191.411 285.88 192.255 280.318 193.708 275H208.333C236.802 275 264.729 284.797 286.969 302.578L331.255 338.01C334.209 340.374 337.878 341.663 341.661 341.667C354.641 341.667 358.328 329.802 358.328 325V245.38C368.255 239.604 375 228.974 375 216.667ZM325 290.323L307.786 276.552C279.661 254.052 244.333 241.667 208.333 241.667V191.667C244.333 191.667 279.661 179.281 307.786 156.781L325 143.01V290.323Z" fill="white"/>
</g>
</g>
<defs>
<clipPath id="clip0_29_1127">
<rect width="450" height="450" fill="white"/>
</clipPath>
<clipPath id="clip1_29_1127">
<rect width="450" height="450" fill="white"/>
</clipPath>
<clipPath id="clip2_29_1127">
<rect width="300" height="300" fill="white" transform="translate(75 75)"/>
</clipPath>
</defs>
</svg>
