<?xml version="1.0" standalone="no"?>
<!DOCTYPE svg PUBLIC "-//W3C//DTD SVG 20010904//EN"
 "http://www.w3.org/TR/2001/REC-SVG-20010904/DTD/svg10.dtd">
<svg version="1.0" xmlns="http://www.w3.org/2000/svg"
 width="450.000000pt" height="450.000000pt" viewBox="0 0 450.000000 450.000000"
 preserveAspectRatio="xMidYMid meet">
<metadata>
Created by potrace 1.14, written by Peter Selinger 2001-2017
</metadata>
<g transform="translate(0.000000,450.000000) scale(0.100000,-0.100000)"
fill="#000000" stroke="none">
<path d="M0 2250 l0 -2250 2250 0 2250 0 0 2250 0 2250 -2250 0 -2250 0 0
-2250z m3496 1314 c21 -10 45 -34 61 -62 l27 -45 2 -420 3 -419 33 -23 c37
-25 64 -60 99 -125 20 -38 24 -59 24 -135 0 -112 -23 -165 -107 -247 l-59 -56
1 -415 c2 -447 2 -444 -52 -494 -46 -43 -112 -54 -171 -29 -18 7 -152 108
-297 225 -146 116 -295 230 -332 252 -192 116 -434 179 -689 179 -83 0 -98 -3
-104 -17 -4 -10 -10 -64 -12 -119 -8 -160 28 -287 121 -426 45 -66 50 -135 13
-189 -48 -71 -62 -75 -294 -83 -310 -10 -339 0 -404 140 -76 160 -112 352
-107 561 l3 131 -130 4 c-118 3 -135 5 -187 31 -72 35 -140 110 -168 184 -20
54 -21 72 -18 377 l3 321 33 67 c36 75 88 123 168 160 49 23 51 23 684 29 677
6 670 6 831 59 35 12 119 48 185 81 108 54 151 84 384 271 144 115 276 218
294 229 39 24 115 25 162 3z"/>
<path d="M3150 2988 c-288 -238 -584 -365 -930 -398 -63 -6 -121 -13 -128 -15
-10 -4 -12 -58 -10 -247 l3 -243 50 -2 c101 -5 262 -26 333 -44 113 -29 319
-114 420 -173 92 -55 158 -102 290 -209 l72 -58 0 730 c0 402 -3 731 -7 730
-5 0 -46 -32 -93 -71z"/>
</g>
</svg>
