<?xml version="1.0" standalone="no"?>
<!DOCTYPE svg PUBLIC "-//W3C//DTD SVG 20010904//EN"
 "http://www.w3.org/TR/2001/REC-SVG-20010904/DTD/svg10.dtd">
<svg version="1.0" xmlns="http://www.w3.org/2000/svg"
 width="450.000000pt" height="450.000000pt" viewBox="0 0 450.000000 450.000000"
 preserveAspectRatio="xMidYMid meet">
<metadata>
Created by potrace 1.14, written by Peter Selinger 2001-2017
</metadata>
<g transform="translate(0.000000,450.000000) scale(0.100000,-0.100000)"
fill="#000000" stroke="none">
<path d="M0 4286 l0 -214 65 -38 c35 -22 65 -42 65 -45 0 -3 -27 -39 -60 -80
-33 -40 -60 -81 -60 -91 0 -9 38 -180 84 -380 56 -242 91 -419 105 -532 12
-93 20 -170 18 -173 -3 -2 -51 7 -108 20 l-104 24 -3 -179 c-1 -98 -1 -260 0
-360 l3 -183 111 330 111 330 174 6 c96 4 221 7 279 8 l105 1 20 36 c39 72
142 136 241 149 49 6 56 11 155 112 l103 105 76 -22 c41 -13 80 -25 87 -29 6
-3 -47 -40 -118 -81 l-130 -75 202 -3 c111 -1 204 0 206 2 5 5 -100 141 -123
161 -6 6 -29 96 -49 200 -34 168 -50 223 -143 473 -57 156 -103 285 -101 287
2 2 186 -18 408 -45 223 -27 408 -47 412 -44 6 3 314 -110 429 -158 l35 -15
-211 -429 -212 -429 56 -3 c75 -4 235 23 343 58 103 34 185 74 293 143 l78 50
-5 40 -5 39 270 305 c217 243 273 302 283 291 25 -28 372 -454 379 -466 5 -9
-20 -25 -89 -57 l-96 -45 2 -330 3 -330 25 -17 c43 -28 82 -76 110 -133 22
-46 26 -69 26 -140 0 -73 -4 -93 -28 -142 -17 -35 -48 -75 -78 -101 l-50 -43
-6 -230 -6 -229 45 -64 c65 -95 65 -95 142 -27 l66 57 315 -187 c173 -103 313
-189 312 -191 -2 -1 -185 40 -406 91 -277 65 -412 101 -431 115 l-28 20 -6
-37 c-3 -20 -6 -63 -6 -95 0 -128 -99 -212 -208 -176 -20 6 -121 79 -225 160
-103 82 -190 149 -193 149 -3 0 -25 -16 -48 -35 -24 -19 -45 -35 -48 -35 -2 0
-5 21 -6 48 -5 109 -8 117 -75 160 -87 55 -133 82 -141 82 -4 0 40 -62 98
-137 58 -76 104 -139 102 -140 -3 -3 -843 294 -857 303 -5 2 1 25 11 50 11 25
20 48 20 50 0 2 -16 4 -35 4 -31 0 -35 -3 -44 -37 -9 -33 -8 -39 15 -63 22
-21 475 -870 469 -878 -1 -1 -101 31 -221 73 l-219 75 -140 -2 -140 -3 2 -40
c1 -22 27 -210 58 -418 31 -208 55 -382 53 -388 -2 -5 -90 146 -196 336 -106
189 -216 372 -243 407 -44 54 -48 63 -32 69 10 4 40 17 67 28 l48 21 -26 21
c-15 12 -40 46 -55 78 -32 63 -87 228 -97 291 -6 34 -17 49 -68 92 -33 28 -67
57 -74 63 -10 9 -7 25 11 80 l24 70 -20 61 -20 62 -66 4 c-122 9 -227 81 -283
196 -20 42 -23 66 -28 227 l-5 180 -149 -350 c-82 -192 -149 -355 -149 -361 0
-19 187 -334 199 -334 6 0 111 38 234 85 122 47 224 84 226 82 2 -1 -89 -95
-201 -207 -112 -112 -206 -202 -208 -200 -2 3 -14 55 -26 115 -13 61 -24 111
-25 112 -1 1 -137 -5 -301 -13 -165 -8 -310 -13 -323 -11 l-22 4 0 -638 0
-639 1428 0 1427 0 130 205 c71 113 132 205 135 205 3 -1 145 -49 316 -108
l311 -107 -189 -89 c-104 -49 -191 -93 -194 -98 -3 -4 252 -8 565 -8 l571 0 0
1281 0 1281 -302 -7 c-167 -4 -301 -5 -298 -2 10 10 583 337 592 337 4 0 8
235 8 522 l0 523 -112 282 -113 283 -766 0 -767 0 -122 -135 c-67 -74 -123
-135 -126 -135 -2 0 6 17 19 38 93 147 138 224 135 228 -3 2 -194 3 -426 2
l-420 -3 103 -255 c57 -140 102 -256 100 -258 -4 -5 -599 388 -612 405 -6 8
-15 32 -18 54 -4 21 -10 41 -14 44 -5 2 -39 -87 -76 -198 -80 -237 -82 -242
-99 -228 -7 6 -223 107 -482 226 l-469 215 -117 0 -118 0 0 -214z m3031 140
c127 -30 232 -56 234 -58 7 -8 105 -232 102 -234 -3 -4 -556 323 -571 337 -15
13 -14 13 235 -45z m602 -233 c-22 -27 -85 -103 -140 -170 l-100 -121 -7 60
c-3 34 -6 84 -6 112 l0 51 138 57 c75 31 141 57 145 57 5 1 -9 -20 -30 -46z
m-2443 -149 c0 -14 -385 -643 -392 -641 -14 4 -656 572 -652 576 4 4 912 67
1002 70 23 0 42 -2 42 -5z"/>
<path d="M3135 2977 c-114 -92 -244 -182 -305 -212 -35 -16 -35 -17 -69 -163
-19 -81 -38 -155 -41 -165 -5 -15 -17 0 -55 65 -26 45 -59 100 -71 120 l-24
37 -42 -15 c-57 -20 -240 -50 -356 -59 l-92 -7 2 -247 3 -246 124 -8 c107 -6
263 -32 311 -51 12 -5 33 33 95 173 44 99 85 187 92 196 10 15 46 -13 275
-208 l263 -225 3 273 c1 151 1 399 0 553 l-3 279 -110 -90z"/>
<path d="M2939 1834 c41 -28 279 -124 306 -124 3 0 5 33 5 73 l0 74 -137 6
c-75 4 -157 7 -182 7 l-46 0 54 -36z"/>
<path d="M3234 1629 c-3 -6 -1 -16 5 -22 8 -8 11 -5 11 11 0 24 -5 28 -16 11z"/>
</g>
</svg>
